<svg width="3460" height="2004" xmlns="http://www.w3.org/2000/svg" xmlns:xlink="http://www.w3.org/1999/xlink" xml:space="preserve" overflow="hidden"><defs><clipPath id="clip0"><rect x="264" y="83" width="3460" height="2004"/></clipPath><clipPath id="clip1"><rect x="337" y="273" width="1590" height="406"/></clipPath><clipPath id="clip2"><rect x="337" y="356" width="1590" height="406"/></clipPath><clipPath id="clip3"><rect x="337" y="439" width="1590" height="406"/></clipPath><clipPath id="clip4"><rect x="337" y="522" width="1590" height="406"/></clipPath><clipPath id="clip5"><rect x="337" y="605" width="1590" height="406"/></clipPath><clipPath id="clip6"><rect x="337" y="688" width="1590" height="406"/></clipPath><clipPath id="clip7"><rect x="337" y="771" width="1590" height="406"/></clipPath><clipPath id="clip8"><rect x="337" y="854" width="1590" height="405"/></clipPath><clipPath id="clip9"><rect x="337" y="937" width="1590" height="405"/></clipPath><clipPath id="clip10"><rect x="337" y="1020" width="1590" height="405"/></clipPath><clipPath id="clip11"><rect x="337" y="1103" width="1590" height="405"/></clipPath><clipPath id="clip12"><rect x="337" y="1186" width="1590" height="405"/></clipPath><clipPath id="clip13"><rect x="337" y="1269" width="1590" height="405"/></clipPath><clipPath id="clip14"><rect x="337" y="1352" width="1590" height="405"/></clipPath></defs><g clip-path="url(#clip0)" transform="translate(-264 -83)"><rect x="264" y="82.9998" width="3460" height="1985" fill="#FFFFFF"/><rect x="264" y="82.9998" width="3227" height="2000" fill="#1D4C7C"/><rect x="2647" y="170" width="705" height="222" fill="#3397D3"/><text fill="#000000" fill-opacity="0.988235" font-family="Segoe UI,Segoe UI_MSFontService,sans-serif" font-weight="400" font-size="64" transform="matrix(1 0 0 1 2841.85 301)">Other </text><text fill="#000000" fill-opacity="0.988235" font-family="Segoe UI,Segoe UI_MSFontService,sans-serif" font-weight="400" font-size="64" transform="matrix(1 0 0 1 3004.69 301)">codes</text><rect x="2647" y="444" width="698" height="70.9998" fill="#3397D3"/><rect x="2647" y="527" width="698" height="71.0002" fill="#3397D3"/><rect x="2647" y="610" width="698" height="70.9998" fill="#3397D3"/><rect x="2647" y="692" width="698" height="72.0002" fill="#3397D3"/><rect x="2647" y="775" width="698" height="70.9998" fill="#3397D3"/><rect x="2647" y="858" width="698" height="71.0002" fill="#3397D3"/><rect x="2647" y="940" width="698" height="71.9998" fill="#3397D3"/><rect x="2647" y="1023" width="698" height="71.9999" fill="#3397D3"/><rect x="2647" y="1106" width="698" height="71.0001" fill="#3397D3"/><rect x="2647" y="1189" width="698" height="70.9998" fill="#3397D3"/><rect x="2647" y="1271" width="698" height="72.0002" fill="#3397D3"/><rect x="2647" y="1354" width="698" height="70.9998" fill="#3397D3"/><rect x="2647" y="1437" width="698" height="71.0001" fill="#3397D3"/><rect x="2647" y="1520" width="698" height="70.9998" fill="#3397D3"/><rect x="1927" y="444" width="697" height="70.9998" fill="#E7B921"/><rect x="1927" y="527" width="697" height="71.0002" fill="#E7B921"/><rect x="1927" y="610" width="697" height="70.9998" fill="#E7B921"/><rect x="1927" y="692" width="697" height="72.0002" fill="#E7B921"/><rect x="1927" y="775" width="697" height="70.9998" fill="#E7B921"/><rect x="1927" y="858" width="697" height="71.0002" fill="#E7B921"/><rect x="1927" y="940" width="697" height="71.9998" fill="#E7B921"/><rect x="1927" y="1023" width="697" height="71.9999" fill="#E7B921"/><rect x="1927" y="1106" width="697" height="71.0001" fill="#E7B921"/><rect x="1927" y="1189" width="697" height="70.9998" fill="#E7B921"/><rect x="1927" y="1271" width="697" height="72.0002" fill="#E7B921"/><rect x="1927" y="1354" width="697" height="70.9998" fill="#E7B921"/><rect x="1927" y="1437" width="697" height="71.0001" fill="#E7B921"/><rect x="1927" y="1520" width="697" height="70.9998" fill="#E7B921"/><rect x="1927" y="170" width="697" height="221" fill="#E7B921"/><text fill="#000000" fill-opacity="0.988235" font-family="Segoe UI,Segoe UI_MSFontService,sans-serif" font-weight="400" font-size="64" transform="matrix(1 0 0 1 2125.56 301)">O</text><text fill="#000000" fill-opacity="0.988235" font-family="Segoe UI,Segoe UI_MSFontService,sans-serif" font-weight="400" font-size="64" transform="matrix(1 0 0 1 2170.85 301)">penFDEM</text><g clip-path="url(#clip1)"><text fill="#FFFFFF" font-family="Segoe UI,Segoe UI_MSFontService,sans-serif" font-weight="400" font-size="48" transform="matrix(1 0 0 1 503.315 494)">Ability to simulate the fracturing from continuum to discontinuum</text></g><g clip-path="url(#clip2)"><text fill="#FFFFFF" font-family="Segoe UI,Segoe UI_MSFontService,sans-serif" font-weight="400" font-size="48" transform="matrix(1 0 0 1 1360.97 577)">High order element types </text></g><g clip-path="url(#clip3)"><text fill="#FFFFFF" font-family="Segoe UI,Segoe UI_MSFontService,sans-serif" font-weight="400" font-size="48" transform="matrix(1 0 0 1 791.492 660)">Fruitful material library, supporting over 17 materials </text></g><text fill="#FFFFFF" font-family="Segoe UI,Segoe UI_MSFontService,sans-serif" font-weight="400" font-size="48" transform="matrix(1 0 0 1 946.752 743)">Time</text><text fill="#FFFFFF" font-family="Segoe UI,Segoe UI_MSFontService,sans-serif" font-weight="400" font-size="48" transform="matrix(1 0 0 1 1049.88 743)">-</text><g clip-path="url(#clip4)"><text fill="#FFFFFF" font-family="Segoe UI,Segoe UI_MSFontService,sans-serif" font-weight="400" font-size="48" transform="matrix(1 0 0 1 1069.36 743)">dependent contact detection algorithm</text></g><text fill="#FFFFFF" font-family="Segoe UI,Segoe UI_MSFontService,sans-serif" font-weight="400" font-size="48" transform="matrix(1 0 0 1 1243.52 826)">Arbitrary</text><text fill="#FFFFFF" font-family="Segoe UI,Segoe UI_MSFontService,sans-serif" font-weight="400" font-size="48" transform="matrix(1 0 0 1 1428 826)">-</text><g clip-path="url(#clip5)"><text fill="#FFFFFF" font-family="Segoe UI,Segoe UI_MSFontService,sans-serif" font-weight="400" font-size="48" transform="matrix(1 0 0 1 1447.48 826)">arbitrary contact type</text></g><g clip-path="url(#clip6)"><text fill="#FFFFFF" font-family="Segoe UI,Segoe UI_MSFontService,sans-serif" font-weight="400" font-size="48" transform="matrix(1 0 0 1 1170.19 909)">Hydro module (including gas flow)</text></g><g clip-path="url(#clip7)"><text fill="#FFFFFF" font-family="Segoe UI,Segoe UI_MSFontService,sans-serif" font-weight="400" font-size="48" transform="matrix(1 0 0 1 607.013 992)">Thermal module and THM coupling (include contact thermal)</text></g><text fill="#FFFFFF" font-family="Segoe UI,Segoe UI_MSFontService,sans-serif" font-weight="400" font-size="48" transform="matrix(1 0 0 1 788.054 1075)">Fluid</text><text fill="#FFFFFF" font-family="Segoe UI,Segoe UI_MSFontService,sans-serif" font-weight="400" font-size="48" transform="matrix(1 0 0 1 890.033 1075)">-</text><g clip-path="url(#clip8)"><text fill="#FFFFFF" font-family="Segoe UI,Segoe UI_MSFontService,sans-serif" font-weight="400" font-size="48" transform="matrix(1 0 0 1 909.512 1075)">Solid interaction (computational fluid dynamic)</text></g><g clip-path="url(#clip9)"><text fill="#FFFFFF" font-family="Segoe UI,Segoe UI_MSFontService,sans-serif" font-weight="400" font-size="48" transform="matrix(1 0 0 1 1222.32 1158)">Blast and explosive EOS support</text></g><text fill="#FFFFFF" font-family="Segoe UI,Segoe UI_MSFontService,sans-serif" font-weight="400" font-size="48" transform="matrix(1 0 0 1 1131.8 1241)">Built</text><text fill="#FFFFFF" font-family="Segoe UI,Segoe UI_MSFontService,sans-serif" font-weight="400" font-size="48" transform="matrix(1 0 0 1 1225.76 1241)">-</text><text fill="#FFFFFF" font-family="Segoe UI,Segoe UI_MSFontService,sans-serif" font-weight="400" font-size="48" transform="matrix(1 0 0 1 1245.24 1241)">in DFN generation (</text><text fill="#FFFFFF" font-family="Segoe UI,Segoe UI_MSFontService,sans-serif" font-weight="400" font-size="48" transform="matrix(1 0 0 1 1661.75 1241)">2D</text><g clip-path="url(#clip10)"><text fill="#FFFFFF" font-family="Segoe UI,Segoe UI_MSFontService,sans-serif" font-weight="400" font-size="48" transform="matrix(1 0 0 1 1734.51 1241)">and 3D)</text></g><g clip-path="url(#clip11)"><text fill="#FFFFFF" font-family="Segoe UI,Segoe UI_MSFontService,sans-serif" font-weight="400" font-size="48" transform="matrix(1 0 0 1 974.825 1324)">Grain based model and image identification</text></g><text fill="#FFFFFF" font-family="Segoe UI,Segoe UI_MSFontService,sans-serif" font-weight="400" font-size="48" transform="matrix(1 0 0 1 613.888 1407)">Built</text><text fill="#FFFFFF" font-family="Segoe UI,Segoe UI_MSFontService,sans-serif" font-weight="400" font-size="48" transform="matrix(1 0 0 1 707.846 1407)">-</text><g clip-path="url(#clip12)"><text fill="#FFFFFF" font-family="Segoe UI,Segoe UI_MSFontService,sans-serif" font-weight="400" font-size="48" transform="matrix(1 0 0 1 727.325 1407)">in module to create geometry, mesh and preprocessing</text></g><g clip-path="url(#clip13)"><text fill="#FFFFFF" font-family="Segoe UI,Segoe UI_MSFontService,sans-serif" font-weight="400" font-size="48" transform="matrix(1 0 0 1 1564.93 1490)">Particulate DEM</text></g><g clip-path="url(#clip14)"><text fill="#FFFFFF" font-family="Segoe UI,Segoe UI_MSFontService,sans-serif" font-weight="400" font-size="48" transform="matrix(1 0 0 1 1092.85 1573)">Parallelization (GPU, CPU and clusters)</text></g><text fill="#000000" fill-opacity="0.568627" font-family="Segoe UI,Segoe UI_MSFontService,sans-serif" font-weight="400" font-size="69" transform="matrix(1 0 0 1 3052.79 915)">*</text><text fill="#000000" fill-opacity="0.568627" font-family="Segoe UI,Segoe UI_MSFontService,sans-serif" font-weight="400" font-size="46" transform="matrix(1 0 0 1 3081.44 894)">2</text><rect x="362" y="170" width="1539" height="222" fill="#FFFFFF"/><text fill="#000000" fill-opacity="0.988235" font-family="Segoe UI,Segoe UI_MSFontService,sans-serif" font-weight="400" font-size="64" transform="matrix(1 0 0 1 986.09 301)">Capabilities</text><path d="M2579 283.5C2579 252.296 2604.3 227 2635.5 227 2666.7 227 2692 252.296 2692 283.5 2692 314.704 2666.7 340 2635.5 340 2604.3 340 2579 314.704 2579 283.5Z" fill-rule="evenodd"/><text fill="#80BEE4" fill-opacity="0.988235" font-family="Segoe UI,Segoe UI_MSFontService,sans-serif" font-weight="700" font-size="55" transform="matrix(1 0 0 1 2601.38 298)">vs.</text><path d="M2262.5 451C2246.76 451 2234 463.755 2234 479.5 2234 495.245 2246.76 508 2262.5 508 2278.24 508 2291 495.245 2291 479.5 2291 463.755 2278.24 451 2262.5 451ZM2260.23 492.896C2260.23 492.896 2260.23 492.896 2248.09 482.373 2248.09 482.373 2248.09 482.373 2251.96 477.927 2251.96 477.927 2251.96 477.927 2259.69 484.587 2259.69 484.587 2259.69 484.587 2271.82 466.298 2276.77 469.618 2276.77 469.618 2276.77 469.618 2276.77 469.618 2276.77 469.618 2260.23 492.896Z" fill="#FFFFFF" fill-rule="evenodd"/><path d="M2262.5 534C2246.76 534 2234 546.755 2234 562.5 2234 578.245 2246.76 591 2262.5 591 2278.24 591 2291 578.245 2291 562.5 2291 546.755 2278.24 534 2262.5 534ZM2260.23 575.896C2260.23 575.896 2260.23 575.896 2248.09 565.373 2248.09 565.373 2248.09 565.373 2251.96 560.927 2251.96 560.927 2251.96 560.927 2259.69 567.586 2259.69 567.586 2259.69 567.586 2271.82 549.298 2276.77 552.618 2276.77 552.618 2276.77 552.618 2276.77 552.618 2276.77 552.618 2260.23 575.896Z" fill="#FFFFFF" fill-rule="evenodd"/><path d="M2262.5 616C2246.76 616 2234 628.755 2234 644.5 2234 660.245 2246.76 673 2262.5 673 2278.24 673 2291 660.245 2291 644.5 2291 628.755 2278.24 616 2262.5 616ZM2260.23 657.896C2260.23 657.896 2260.23 657.896 2248.09 647.373 2248.09 647.373 2248.09 647.373 2251.96 642.927 2251.96 642.927 2251.96 642.927 2259.69 649.587 2259.69 649.587 2259.69 649.587 2271.82 631.298 2276.77 634.618 2276.77 634.618 2276.77 634.618 2276.77 634.618 2276.77 634.618 2260.23 657.896Z" fill="#FFFFFF" fill-rule="evenodd"/><path d="M2262.5 698C2246.76 698 2234 710.755 2234 726.5 2234 742.245 2246.76 755 2262.5 755 2278.24 755 2291 742.245 2291 726.5 2291 710.755 2278.24 698 2262.5 698ZM2260.23 739.896C2260.23 739.896 2260.23 739.896 2248.09 729.373 2248.09 729.373 2248.09 729.373 2251.96 724.927 2251.96 724.927 2251.96 724.927 2259.69 731.587 2259.69 731.587 2259.69 731.587 2271.82 713.298 2276.77 716.618 2276.77 716.618 2276.77 716.618 2276.77 716.618 2276.77 716.618 2260.23 739.896Z" fill="#FFFFFF" fill-rule="evenodd"/><path d="M2262.5 782C2246.76 782 2234 794.755 2234 810.5 2234 826.245 2246.76 839 2262.5 839 2278.24 839 2291 826.245 2291 810.5 2291 794.755 2278.24 782 2262.5 782ZM2260.23 823.896C2260.23 823.896 2260.23 823.896 2248.09 813.373 2248.09 813.373 2248.09 813.373 2251.96 808.928 2251.96 808.928 2251.96 808.928 2259.69 815.587 2259.69 815.587 2259.69 815.587 2271.82 797.298 2276.77 800.618 2276.77 800.618 2276.77 800.618 2276.77 800.618 2276.77 800.618 2260.23 823.896Z" fill="#FFFFFF" fill-rule="evenodd"/><path d="M2262.5 863C2246.76 863 2234 875.755 2234 891.5 2234 907.245 2246.76 920 2262.5 920 2278.24 920 2291 907.245 2291 891.5 2291 875.755 2278.24 863 2262.5 863ZM2260.23 904.896C2260.23 904.896 2260.23 904.896 2248.09 894.373 2248.09 894.373 2248.09 894.373 2251.96 889.927 2251.96 889.927 2251.96 889.927 2259.69 896.587 2259.69 896.587 2259.69 896.587 2271.82 878.298 2276.77 881.618 2276.77 881.618 2276.77 881.618 2276.77 881.618 2276.77 881.618 2260.23 904.896Z" fill="#FFFFFF" fill-rule="evenodd"/><path d="M3016.5 864C3000.75 864 2988 876.531 2988 892 2988 907.469 3000.75 920 3016.5 920 3032.24 920 3045 907.469 3045 892 3045 876.531 3032.24 864 3016.5 864ZM3014.23 905.161C3014.23 905.161 3014.23 905.161 3002.09 894.823 3002.09 894.823 3002.09 894.823 3005.96 890.455 3005.96 890.455 3005.96 890.455 3013.68 896.997 3013.68 896.997 3013.68 896.997 3025.82 879.03 3030.77 882.291 3030.77 882.291 3030.77 882.291 3030.77 882.291 3030.77 882.291 3014.23 905.161Z" fill="#FFFFFF" fill-rule="evenodd" fill-opacity="0.6"/><path d="M3016.5 452C3000.75 452 2988 464.755 2988 480.5 2988 496.245 3000.75 509 3016.5 509 3032.24 509 3045 496.245 3045 480.5 3045 464.755 3032.24 452 3016.5 452ZM3014.23 493.896C3014.23 493.896 3014.23 493.896 3002.09 483.373 3002.09 483.373 3002.09 483.373 3005.96 478.928 3005.96 478.928 3005.96 478.928 3013.68 485.587 3013.68 485.587 3013.68 485.587 3025.82 467.298 3030.77 470.618 3030.77 470.618 3030.77 470.618 3030.77 470.618 3030.77 470.618 3014.23 493.896Z" fill="#FFFFFF" fill-rule="evenodd"/><path d="M2262.5 1532C2246.76 1532 2234 1544.76 2234 1560.5 2234 1576.25 2246.76 1589 2262.5 1589 2278.24 1589 2291 1576.25 2291 1560.5 2291 1544.76 2278.24 1532 2262.5 1532ZM2260.23 1573.9C2260.23 1573.9 2260.23 1573.9 2248.09 1563.37 2248.09 1563.37 2248.09 1563.37 2251.96 1558.93 2251.96 1558.93 2251.96 1558.93 2259.69 1565.59 2259.69 1565.59 2259.69 1565.59 2271.82 1547.3 2276.77 1550.62 2276.77 1550.62 2276.77 1550.62 2276.77 1550.62 2276.77 1550.62 2260.23 1573.9Z" fill="#FFFFFF" fill-rule="evenodd"/><text fill="#000000" fill-opacity="0.568627" font-family="Segoe UI,Segoe UI_MSFontService,sans-serif" font-weight="400" font-size="69" transform="matrix(1 0 0 1 3052.79 1587)">*</text><text fill="#000000" fill-opacity="0.568627" font-family="Segoe UI,Segoe UI_MSFontService,sans-serif" font-weight="400" font-size="46" transform="matrix(1 0 0 1 3081.44 1566)">7</text><text fill="#FFFFFF" font-family="Segoe UI,Segoe UI_MSFontService,sans-serif" font-weight="400" font-size="37" transform="matrix(1 0 0 1 290.773 1766)">*1 </text><text fill="#FFFFFF" font-family="Segoe UI,Segoe UI_MSFontService,sans-serif" font-weight="400" font-size="37" transform="matrix(1 0 0 1 336.607 1766)">YH</text><text fill="#FFFFFF" font-family="Segoe UI,Segoe UI_MSFontService,sans-serif" font-weight="400" font-size="37" transform="matrix(1 0 0 1 382.44 1766)">-</text><text fill="#FFFFFF" font-family="Segoe UI,Segoe UI_MSFontService,sans-serif" font-weight="400" font-size="37" transform="matrix(1 0 0 1 397.336 1766)">FDEM</text><text fill="#FFFFFF" font-family="Segoe UI,Segoe UI_MSFontService,sans-serif" font-weight="400" font-size="37" transform="matrix(1 0 0 1 502.18 1766)">has contact activation algorithm.</text><text fill="#FFFFFF" font-family="Segoe UI,Segoe UI_MSFontService,sans-serif" font-weight="400" font-size="37" transform="matrix(1 0 0 1 290.773 1815)">*2  </text><text fill="#FFFFFF" font-family="Segoe UI,Segoe UI_MSFontService,sans-serif" font-weight="400" font-size="37" transform="matrix(1 0 0 1 346.919 1815)">MultiFracs</text><text fill="#FFFFFF" font-family="Segoe UI,Segoe UI_MSFontService,sans-serif" font-weight="400" font-size="37" transform="matrix(1 0 0 1 523.378 1815)">and </text><text fill="#FFFFFF" font-family="Segoe UI,Segoe UI_MSFontService,sans-serif" font-weight="400" font-size="37" transform="matrix(1 0 0 1 594.992 1815)">Irazu</text><text fill="#FFFFFF" font-family="Segoe UI,Segoe UI_MSFontService,sans-serif" font-weight="400" font-size="37" transform="matrix(1 0 0 1 683.794 1815)">have hydro module, but no gas flow.</text><text fill="#FFFFFF" font-family="Segoe UI,Segoe UI_MSFontService,sans-serif" font-weight="400" font-size="37" transform="matrix(1 0 0 1 290.773 1863)">*3  Only </text><text fill="#FFFFFF" font-family="Segoe UI,Segoe UI_MSFontService,sans-serif" font-weight="400" font-size="37" transform="matrix(1 0 0 1 432.284 1863)">MultiFracs</text><text fill="#FFFFFF" font-family="Segoe UI,Segoe UI_MSFontService,sans-serif" font-weight="400" font-size="37" transform="matrix(1 0 0 1 608.742 1863)">and </text><text fill="#FFFFFF" font-family="Segoe UI,Segoe UI_MSFontService,sans-serif" font-weight="400" font-size="37" transform="matrix(1 0 0 1 680.357 1863)">Irazu</text><text fill="#FFFFFF" font-family="Segoe UI,Segoe UI_MSFontService,sans-serif" font-weight="400" font-size="37" transform="matrix(1 0 0 1 769.159 1863)">have THM coupling.</text><text fill="#FFFFFF" font-family="Segoe UI,Segoe UI_MSFontService,sans-serif" font-weight="400" font-size="37" transform="matrix(1 0 0 1 290.773 1911)">*4  Only Solidity and HOSS have </text><text fill="#FFFFFF" font-family="Segoe UI,Segoe UI_MSFontService,sans-serif" font-weight="400" font-size="37" transform="matrix(1 0 0 1 824.159 1911)">CFD</text><text fill="#FFFFFF" font-family="Segoe UI,Segoe UI_MSFontService,sans-serif" font-weight="400" font-size="37" transform="matrix(1 0 0 1 890.617 1911)">. Solidity is coupled with Fluidity and HOSS uses built</text><text fill="#FFFFFF" font-family="Segoe UI,Segoe UI_MSFontService,sans-serif" font-weight="400" font-size="37" transform="matrix(1 0 0 1 1752.28 1911)">-</text><text fill="#FFFFFF" font-family="Segoe UI,Segoe UI_MSFontService,sans-serif" font-weight="400" font-size="37" transform="matrix(1 0 0 1 1767.18 1911)">in module.</text><text fill="#FFFFFF" font-family="Segoe UI,Segoe UI_MSFontService,sans-serif" font-weight="400" font-size="37" transform="matrix(1 0 0 1 290.773 1960)">*5  </text><text fill="#FFFFFF" font-family="Segoe UI,Segoe UI_MSFontService,sans-serif" font-weight="400" font-size="37" transform="matrix(1 0 0 1 346.919 1960)">Irazu</text><text fill="#FFFFFF" font-family="Segoe UI,Segoe UI_MSFontService,sans-serif" font-weight="400" font-size="37" transform="matrix(1 0 0 1 435.721 1960)">has built</text><text fill="#FFFFFF" font-family="Segoe UI,Segoe UI_MSFontService,sans-serif" font-weight="400" font-size="37" transform="matrix(1 0 0 1 574.367 1960)">-</text><text fill="#FFFFFF" font-family="Segoe UI,Segoe UI_MSFontService,sans-serif" font-weight="400" font-size="37" transform="matrix(1 0 0 1 589.263 1960)">in function to create </text><text fill="#FFFFFF" font-family="Segoe UI,Segoe UI_MSFontService,sans-serif" font-weight="400" font-size="37" transform="matrix(1 0 0 1 927.857 1960)">2D</text><text fill="#FFFFFF" font-family="Segoe UI,Segoe UI_MSFontService,sans-serif" font-weight="400" font-size="37" transform="matrix(1 0 0 1 984.003 1960)">DFNs, </text><text fill="#FFFFFF" font-family="Segoe UI,Segoe UI_MSFontService,sans-serif" font-weight="400" font-size="37" transform="matrix(1 0 0 1 1088.85 1960)">OpenFDEM</text><text fill="#FFFFFF" font-family="Segoe UI,Segoe UI_MSFontService,sans-serif" font-weight="400" font-size="37" transform="matrix(1 0 0 1 1282.49 1960)">supports create 3D DFNs.</text><text fill="#FFFFFF" font-family="Segoe UI,Segoe UI_MSFontService,sans-serif" font-weight="400" font-size="37" transform="matrix(1 0 0 1 290.773 2008)">*6  Only </text><text fill="#FFFFFF" font-family="Segoe UI,Segoe UI_MSFontService,sans-serif" font-weight="400" font-size="37" transform="matrix(1 0 0 1 432.284 2008)">Irazu</text><text fill="#FFFFFF" font-family="Segoe UI,Segoe UI_MSFontService,sans-serif" font-weight="400" font-size="37" transform="matrix(1 0 0 1 521.086 2008)">and </text><text fill="#FFFFFF" font-family="Segoe UI,Segoe UI_MSFontService,sans-serif" font-weight="400" font-size="37" transform="matrix(1 0 0 1 592.701 2008)">YH</text><text fill="#FFFFFF" font-family="Segoe UI,Segoe UI_MSFontService,sans-serif" font-weight="400" font-size="37" transform="matrix(1 0 0 1 638.534 2008)">-</text><text fill="#FFFFFF" font-family="Segoe UI,Segoe UI_MSFontService,sans-serif" font-weight="400" font-size="37" transform="matrix(1 0 0 1 653.43 2008)">FDEM</text><text fill="#FFFFFF" font-family="Segoe UI,Segoe UI_MSFontService,sans-serif" font-weight="400" font-size="37" transform="matrix(1 0 0 1 758.273 2008)">support mesh generation, </text><text fill="#FFFFFF" font-family="Segoe UI,Segoe UI_MSFontService,sans-serif" font-weight="400" font-size="37" transform="matrix(1 0 0 1 1186.24 2008)">OpenFDEM</text><text fill="#FFFFFF" font-family="Segoe UI,Segoe UI_MSFontService,sans-serif" font-weight="400" font-size="37" transform="matrix(1 0 0 1 1379.89 2008)">supports </text><text fill="#FFFFFF" font-family="Segoe UI,Segoe UI_MSFontService,sans-serif" font-weight="400" font-size="37" transform="matrix(1 0 0 1 1532.28 2008)">2D</text><text fill="#FFFFFF" font-family="Segoe UI,Segoe UI_MSFontService,sans-serif" font-weight="400" font-size="37" transform="matrix(1 0 0 1 1588.43 2008)">and 3D mesh generation both.</text><text fill="#FFFFFF" font-family="Segoe UI,Segoe UI_MSFontService,sans-serif" font-weight="400" font-size="37" transform="matrix(1 0 0 1 290.773 2057)">*7 </text><text fill="#FFFFFF" font-family="Segoe UI,Segoe UI_MSFontService,sans-serif" font-weight="400" font-size="37" transform="matrix(1 0 0 1 336.607 2057)">Irazu</text><text fill="#FFFFFF" font-family="Segoe UI,Segoe UI_MSFontService,sans-serif" font-weight="400" font-size="37" transform="matrix(1 0 0 1 415.096 2057)">, </text><text fill="#FFFFFF" font-family="Segoe UI,Segoe UI_MSFontService,sans-serif" font-weight="400" font-size="37" transform="matrix(1 0 0 1 433.43 2057)">YH</text><text fill="#FFFFFF" font-family="Segoe UI,Segoe UI_MSFontService,sans-serif" font-weight="400" font-size="37" transform="matrix(1 0 0 1 479.263 2057)">-</text><text fill="#FFFFFF" font-family="Segoe UI,Segoe UI_MSFontService,sans-serif" font-weight="400" font-size="37" transform="matrix(1 0 0 1 494.159 2057)">FDEM</text><text fill="#FFFFFF" font-family="Segoe UI,Segoe UI_MSFontService,sans-serif" font-weight="400" font-size="37" transform="matrix(1 0 0 1 588.69 2057)">, </text><text fill="#FFFFFF" font-family="Segoe UI,Segoe UI_MSFontService,sans-serif" font-weight="400" font-size="37" transform="matrix(1 0 0 1 607.023 2057)">MultiFracs</text><text fill="#FFFFFF" font-family="Segoe UI,Segoe UI_MSFontService,sans-serif" font-weight="400" font-size="37" transform="matrix(1 0 0 1 783.482 2057)">have GPU parallelization, Hoss has </text><text fill="#FFFFFF" font-family="Segoe UI,Segoe UI_MSFontService,sans-serif" font-weight="400" font-size="37" transform="matrix(1 0 0 1 1351.24 2057)">MPI</text><text fill="#FFFFFF" font-family="Segoe UI,Segoe UI_MSFontService,sans-serif" font-weight="400" font-size="37" transform="matrix(1 0 0 1 1424.58 2057)">parallelization and </text><text fill="#FFFFFF" font-family="Segoe UI,Segoe UI_MSFontService,sans-serif" font-weight="400" font-size="37" transform="matrix(1 0 0 1 1733.95 2057)">OpenFDEM</text><text fill="#FFFFFF" font-family="Segoe UI,Segoe UI_MSFontService,sans-serif" font-weight="400" font-size="37" transform="matrix(1 0 0 1 1927.6 2057)">has OpenMP parallelization, </text><text fill="#FFFFFF" font-family="Segoe UI,Segoe UI_MSFontService,sans-serif" font-weight="400" font-size="37" transform="matrix(1 0 0 1 2391.09 2057)">OpenFDEM</text><text fill="#FFFFFF" font-family="Segoe UI,Segoe UI_MSFontService,sans-serif" font-weight="400" font-size="37" transform="matrix(1 0 0 1 2584.73 2057)">has OpenMP</text><text fill="#FFFFFF" font-family="Segoe UI,Segoe UI_MSFontService,sans-serif" font-weight="400" font-size="37" transform="matrix(1 0 0 1 2792.13 2057)">.</text><text fill="#000000" fill-opacity="0.568627" font-family="Segoe UI,Segoe UI_MSFontService,sans-serif" font-weight="400" font-size="69" transform="matrix(1 0 0 1 3052.79 766)">*</text><text fill="#000000" fill-opacity="0.568627" font-family="Segoe UI,Segoe UI_MSFontService,sans-serif" font-weight="400" font-size="46" transform="matrix(1 0 0 1 3081.44 745)">1</text><path d="M2262.5 957C2246.76 957 2234 969.531 2234 985 2234 1000.47 2246.76 1013 2262.5 1013 2278.24 1013 2291 1000.47 2291 985 2291 969.531 2278.24 957 2262.5 957ZM2260.23 998.161C2260.23 998.161 2260.23 998.161 2248.09 987.823 2248.09 987.823 2248.09 987.823 2251.96 983.455 2251.96 983.455 2251.96 983.455 2259.69 989.997 2259.69 989.997 2259.69 989.997 2271.82 972.03 2276.77 975.292 2276.77 975.292 2276.77 975.292 2276.77 975.292 2276.77 975.292 2260.23 998.161Z" fill="#FFFFFF" fill-rule="evenodd"/><text fill="#000000" fill-opacity="0.568627" font-family="Segoe UI,Segoe UI_MSFontService,sans-serif" font-weight="400" font-size="69" transform="matrix(1 0 0 1 3052.79 1007)">*</text><text fill="#000000" fill-opacity="0.568627" font-family="Segoe UI,Segoe UI_MSFontService,sans-serif" font-weight="400" font-size="46" transform="matrix(1 0 0 1 3081.44 986)">3</text><path d="M2262.5 1032C2246.76 1032 2234 1044.76 2234 1060.5 2234 1076.24 2246.76 1089 2262.5 1089 2278.24 1089 2291 1076.24 2291 1060.5 2291 1044.76 2278.24 1032 2262.5 1032ZM2260.23 1073.9C2260.23 1073.9 2260.23 1073.9 2248.09 1063.37 2248.09 1063.37 2248.09 1063.37 2251.96 1058.93 2251.96 1058.93 2251.96 1058.93 2259.69 1065.59 2259.69 1065.59 2259.69 1065.59 2271.82 1047.3 2276.77 1050.62 2276.77 1050.62 2276.77 1050.62 2276.77 1050.62 2276.77 1050.62 2260.23 1073.9Z" fill="#FFFFFF" fill-rule="evenodd"/><text fill="#000000" fill-opacity="0.568627" font-family="Segoe UI,Segoe UI_MSFontService,sans-serif" font-weight="400" font-size="69" transform="matrix(1 0 0 1 3052.79 1085)">*</text><text fill="#000000" fill-opacity="0.568627" font-family="Segoe UI,Segoe UI_MSFontService,sans-serif" font-weight="400" font-size="46" transform="matrix(1 0 0 1 3081.44 1064)">4</text><path d="M2262.5 1115C2246.76 1115 2234 1127.76 2234 1143.5 2234 1159.24 2246.76 1172 2262.5 1172 2278.24 1172 2291 1159.24 2291 1143.5 2291 1127.76 2278.24 1115 2262.5 1115ZM2260.23 1156.9C2260.23 1156.9 2260.23 1156.9 2248.09 1146.37 2248.09 1146.37 2248.09 1146.37 2251.96 1141.93 2251.96 1141.93 2251.96 1141.93 2259.69 1148.59 2259.69 1148.59 2259.69 1148.59 2271.82 1130.3 2276.77 1133.62 2276.77 1133.62 2276.77 1133.62 2276.77 1133.62 2276.77 1133.62 2260.23 1156.9Z" fill="#FFFFFF" fill-rule="evenodd"/><path d="M2262.5 1197C2246.76 1197 2234 1209.76 2234 1225.5 2234 1241.24 2246.76 1254 2262.5 1254 2278.24 1254 2291 1241.24 2291 1225.5 2291 1209.76 2278.24 1197 2262.5 1197ZM2260.23 1238.9C2260.23 1238.9 2260.23 1238.9 2248.09 1228.37 2248.09 1228.37 2248.09 1228.37 2251.96 1223.93 2251.96 1223.93 2251.96 1223.93 2259.69 1230.59 2259.69 1230.59 2259.69 1230.59 2271.82 1212.3 2276.77 1215.62 2276.77 1215.62 2276.77 1215.62 2276.77 1215.62 2276.77 1215.62 2260.23 1238.9Z" fill="#FFFFFF" fill-rule="evenodd"/><text fill="#000000" fill-opacity="0.568627" font-family="Segoe UI,Segoe UI_MSFontService,sans-serif" font-weight="400" font-size="69" transform="matrix(1 0 0 1 3052.79 1259)">*</text><text fill="#000000" fill-opacity="0.568627" font-family="Segoe UI,Segoe UI_MSFontService,sans-serif" font-weight="400" font-size="46" transform="matrix(1 0 0 1 3081.44 1238)">5</text><path d="M2262.5 1282C2246.76 1282 2234 1294.76 2234 1310.5 2234 1326.24 2246.76 1339 2262.5 1339 2278.24 1339 2291 1326.24 2291 1310.5 2291 1294.76 2278.24 1282 2262.5 1282ZM2260.23 1323.9C2260.23 1323.9 2260.23 1323.9 2248.09 1313.37 2248.09 1313.37 2248.09 1313.37 2251.96 1308.93 2251.96 1308.93 2251.96 1308.93 2259.69 1315.59 2259.69 1315.59 2259.69 1315.59 2271.82 1297.3 2276.77 1300.62 2276.77 1300.62 2276.77 1300.62 2276.77 1300.62 2276.77 1300.62 2260.23 1323.9Z" fill="#FFFFFF" fill-rule="evenodd"/><path d="M2262.5 1367C2246.76 1367 2234 1379.76 2234 1395.5 2234 1411.25 2246.76 1424 2262.5 1424 2278.24 1424 2291 1411.25 2291 1395.5 2291 1379.76 2278.24 1367 2262.5 1367ZM2260.23 1408.9C2260.23 1408.9 2260.23 1408.9 2248.09 1398.37 2248.09 1398.37 2248.09 1398.37 2251.96 1393.93 2251.96 1393.93 2251.96 1393.93 2259.69 1400.59 2259.69 1400.59 2259.69 1400.59 2271.82 1382.3 2276.77 1385.62 2276.77 1385.62 2276.77 1385.62 2276.77 1385.62 2276.77 1385.62 2260.23 1408.9Z" fill="#FFFFFF" fill-rule="evenodd"/><text fill="#000000" fill-opacity="0.568627" font-family="Segoe UI,Segoe UI_MSFontService,sans-serif" font-weight="400" font-size="69" transform="matrix(1 0 0 1 3052.79 1422)">*</text><text fill="#000000" fill-opacity="0.568627" font-family="Segoe UI,Segoe UI_MSFontService,sans-serif" font-weight="400" font-size="46" transform="matrix(1 0 0 1 3081.44 1401)">6</text><path d="M2262.5 1447C2246.76 1447 2234 1459.76 2234 1475.5 2234 1491.24 2246.76 1504 2262.5 1504 2278.24 1504 2291 1491.24 2291 1475.5 2291 1459.76 2278.24 1447 2262.5 1447ZM2260.23 1488.9C2260.23 1488.9 2260.23 1488.9 2248.09 1478.37 2248.09 1478.37 2248.09 1478.37 2251.96 1473.93 2251.96 1473.93 2251.96 1473.93 2259.69 1480.59 2259.69 1480.59 2259.69 1480.59 2271.82 1462.3 2276.77 1465.62 2276.77 1465.62 2276.77 1465.62 2276.77 1465.62 2276.77 1465.62 2260.23 1488.9Z" fill="#FFFFFF" fill-rule="evenodd"/><path d="M3016.5 700C3000.75 700 2988 712.755 2988 728.5 2988 744.245 3000.75 757 3016.5 757 3032.24 757 3045 744.245 3045 728.5 3045 712.755 3032.24 700 3016.5 700ZM3014.23 741.896C3014.23 741.896 3014.23 741.896 3002.09 731.373 3002.09 731.373 3002.09 731.373 3005.96 726.927 3005.96 726.927 3005.96 726.927 3013.68 733.586 3013.68 733.586 3013.68 733.586 3025.82 715.298 3030.77 718.618 3030.77 718.618 3030.77 718.618 3030.77 718.618 3030.77 718.618 3014.23 741.896Z" fill="#FFFFFF" fill-rule="evenodd" fill-opacity="0.6"/><path d="M3016.5 951C3000.75 951 2988 963.755 2988 979.5 2988 995.245 3000.75 1008 3016.5 1008 3032.24 1008 3045 995.245 3045 979.5 3045 963.755 3032.24 951 3016.5 951ZM3014.23 992.896C3014.23 992.896 3014.23 992.896 3002.09 982.373 3002.09 982.373 3002.09 982.373 3005.96 977.927 3005.96 977.927 3005.96 977.927 3013.68 984.587 3013.68 984.587 3013.68 984.587 3025.82 966.298 3030.77 969.618 3030.77 969.618 3030.77 969.618 3030.77 969.618 3030.77 969.618 3014.23 992.896Z" fill="#FFFFFF" fill-rule="evenodd" fill-opacity="0.6"/><path d="M3016.5 1033C3000.75 1033 2988 1045.76 2988 1061.5 2988 1077.24 3000.75 1090 3016.5 1090 3032.24 1090 3045 1077.24 3045 1061.5 3045 1045.76 3032.24 1033 3016.5 1033ZM3014.23 1074.9C3014.23 1074.9 3014.23 1074.9 3002.09 1064.37 3002.09 1064.37 3002.09 1064.37 3005.96 1059.93 3005.96 1059.93 3005.96 1059.93 3013.68 1066.59 3013.68 1066.59 3013.68 1066.59 3025.82 1048.3 3030.77 1051.62 3030.77 1051.62 3030.77 1051.62 3030.77 1051.62 3030.77 1051.62 3014.23 1074.9Z" fill="#FFFFFF" fill-rule="evenodd" fill-opacity="0.6"/><path d="M3016.5 1198C3000.75 1198 2988 1210.76 2988 1226.5 2988 1242.24 3000.75 1255 3016.5 1255 3032.24 1255 3045 1242.24 3045 1226.5 3045 1210.76 3032.24 1198 3016.5 1198ZM3014.23 1239.9C3014.23 1239.9 3014.23 1239.9 3002.09 1229.37 3002.09 1229.37 3002.09 1229.37 3005.96 1224.93 3005.96 1224.93 3005.96 1224.93 3013.68 1231.59 3013.68 1231.59 3013.68 1231.59 3025.82 1213.3 3030.77 1216.62 3030.77 1216.62 3030.77 1216.62 3030.77 1216.62 3030.77 1216.62 3014.23 1239.9Z" fill="#FFFFFF" fill-rule="evenodd" fill-opacity="0.6"/><path d="M3016.5 1360C3000.75 1360 2988 1372.76 2988 1388.5 2988 1404.24 3000.75 1417 3016.5 1417 3032.24 1417 3045 1404.24 3045 1388.5 3045 1372.76 3032.24 1360 3016.5 1360ZM3014.23 1401.9C3014.23 1401.9 3014.23 1401.9 3002.09 1391.37 3002.09 1391.37 3002.09 1391.37 3005.96 1386.93 3005.96 1386.93 3005.96 1386.93 3013.68 1393.59 3013.68 1393.59 3013.68 1393.59 3025.82 1375.3 3030.77 1378.62 3030.77 1378.62 3030.77 1378.62 3030.77 1378.62 3030.77 1378.62 3014.23 1401.9Z" fill="#FFFFFF" fill-rule="evenodd" fill-opacity="0.6"/><path d="M3016.5 1524C3000.75 1524 2988 1536.53 2988 1552 2988 1567.47 3000.75 1580 3016.5 1580 3032.24 1580 3045 1567.47 3045 1552 3045 1536.53 3032.24 1524 3016.5 1524ZM3014.23 1565.16C3014.23 1565.16 3014.23 1565.16 3002.09 1554.82 3002.09 1554.82 3002.09 1554.82 3005.96 1550.45 3005.96 1550.45 3005.96 1550.45 3013.68 1557 3013.68 1557 3013.68 1557 3025.82 1539.03 3030.77 1542.29 3030.77 1542.29 3030.77 1542.29 3030.77 1542.29 3030.77 1542.29 3014.23 1565.16Z" fill="#FFFFFF" fill-rule="evenodd" fill-opacity="0.6"/></g></svg>