<svg width="3106" height="1585" xmlns="http://www.w3.org/2000/svg" xmlns:xlink="http://www.w3.org/1999/xlink" xml:space="preserve" overflow="hidden"><defs><filter id="fx0" x="-10%" y="-10%" width="120%" height="120%" filterUnits="userSpaceOnUse" primitiveUnits="userSpaceOnUse"><feComponentTransfer color-interpolation-filters="sRGB"><feFuncR type="discrete" tableValues="0 0"/><feFuncG type="discrete" tableValues="0 0"/><feFuncB type="discrete" tableValues="0 0"/><feFuncA type="linear" slope="0.4" intercept="0"/></feComponentTransfer><feGaussianBlur stdDeviation="6.11111 6.11111"/></filter><filter id="fx1" x="-10%" y="-10%" width="120%" height="120%" filterUnits="userSpaceOnUse" primitiveUnits="userSpaceOnUse"><feComponentTransfer color-interpolation-filters="sRGB"><feFuncR type="discrete" tableValues="0 0"/><feFuncG type="discrete" tableValues="0 0"/><feFuncB type="discrete" tableValues="0 0"/><feFuncA type="linear" slope="0.4" intercept="0"/></feComponentTransfer><feGaussianBlur stdDeviation="6.11111 6.11111"/></filter><filter id="fx2" x="-10%" y="-10%" width="120%" height="120%" filterUnits="userSpaceOnUse" primitiveUnits="userSpaceOnUse"><feComponentTransfer color-interpolation-filters="sRGB"><feFuncR type="discrete" tableValues="0 0"/><feFuncG type="discrete" tableValues="0 0"/><feFuncB type="discrete" tableValues="0 0"/><feFuncA type="linear" slope="0.4" intercept="0"/></feComponentTransfer><feGaussianBlur stdDeviation="6.11111 6.11111"/></filter><clipPath id="clip3"><rect x="1532" y="-6" width="3106" height="1585"/></clipPath><clipPath id="clip4"><path d="M3705.23 4.5C3660.65 4.5 3624.5 40.6461 3624.5 85.2345L3624.5 1460.77C3624.5 1505.35 3660.65 1541.5 3705.23 1541.5L4526.77 1541.5C4571.35 1541.5 4607.5 1505.35 4607.5 1460.77L4607.5 85.2345C4607.5 40.6461 4571.35 4.5 4526.77 4.5ZM1532-5.99998 4638-5.99998 4638 1579 1532 1579Z" fill-rule="evenodd" clip-rule="evenodd"/></clipPath><clipPath id="clip5"><rect x="-3" y="-3" width="1033" height="1587"/></clipPath><clipPath id="clip6"><rect x="0" y="0" width="1026" height="1580"/></clipPath><clipPath id="clip7"><path d="M2680.23 11.4999C2635.65 11.4999 2599.5 47.6459 2599.5 92.2344L2599.5 1467.77C2599.5 1512.35 2635.65 1548.5 2680.23 1548.5L3501.77 1548.5C3546.35 1548.5 3582.5 1512.35 3582.5 1467.77L3582.5 92.2344C3582.5 47.6459 3546.35 11.4999 3501.77 11.4999ZM1532-5.99998 4638-5.99998 4638 1579 1532 1579Z" fill-rule="evenodd" clip-rule="evenodd"/></clipPath><clipPath id="clip8"><rect x="-3" y="-3" width="1033" height="1587"/></clipPath><clipPath id="clip9"><rect x="0" y="0" width="1026" height="1580"/></clipPath><clipPath id="clip10"><path d="M1627.1 4.5C1580.37 4.5 1542.5 42.3747 1542.5 89.0955L1542.5 1456.9C1542.5 1503.63 1580.37 1541.5 1627.1 1541.5L2487.92 1541.5C2534.64 1541.5 2572.52 1503.63 2572.52 1456.9L2572.52 89.0955C2572.52 42.3747 2534.64 4.5 2487.92 4.5ZM1532-5.99998 4638-5.99998 4638 1579 1532 1579Z" fill-rule="evenodd" clip-rule="evenodd"/></clipPath><clipPath id="clip11"><rect x="-3" y="-3" width="1077" height="1587"/></clipPath><clipPath id="clip12"><rect x="0" y="0" width="1073" height="1580"/></clipPath></defs><g clip-path="url(#clip3)" transform="translate(-1532 6)"><g clip-path="url(#clip4)"><g clip-path="url(#clip5)" filter="url(#fx0)" transform="translate(3613 -7)"><g clip-path="url(#clip6)"><path d="M21.2227 101.957C21.2227 57.3688 57.3688 21.2227 101.957 21.2227L923.488 21.2227C968.077 21.2227 1004.22 57.3688 1004.22 101.957L1004.22 1477.49C1004.22 1522.08 968.077 1558.22 923.488 1558.22L101.957 1558.22C57.3688 1558.22 21.2227 1522.08 21.2227 1477.49Z" stroke="#E5E5E5" stroke-width="3" stroke-linejoin="round" stroke-miterlimit="10" fill="#3397D3" fill-rule="evenodd"/></g></g></g><path d="M3624.5 85.2345C3624.5 40.646 3660.65 4.49997 3705.23 4.49997L4526.77 4.49997C4571.35 4.49997 4607.5 40.646 4607.5 85.2345L4607.5 1460.77C4607.5 1505.35 4571.35 1541.5 4526.77 1541.5L3705.23 1541.5C3660.65 1541.5 3624.5 1505.35 3624.5 1460.77Z" stroke="#E5E5E5" stroke-width="3.4375" stroke-linejoin="round" stroke-miterlimit="10" fill="#3397D3" fill-rule="evenodd"/><g clip-path="url(#clip7)"><g clip-path="url(#clip8)" filter="url(#fx1)" transform="translate(2588 0)"><g clip-path="url(#clip9)"><path d="M21.2227 101.957C21.2227 57.3686 57.3688 21.2226 101.957 21.2226L923.488 21.2226C968.077 21.2226 1004.22 57.3686 1004.22 101.957L1004.22 1477.49C1004.22 1522.08 968.077 1558.22 923.488 1558.22L101.957 1558.22C57.3688 1558.22 21.2227 1522.08 21.2227 1477.49Z" stroke="#E5E5E5" stroke-width="3" stroke-linejoin="round" stroke-miterlimit="10" fill="#ED5326" fill-rule="evenodd"/></g></g></g><path d="M2599.5 92.2344C2599.5 47.6459 2635.65 11.4998 2680.23 11.4998L3501.77 11.4998C3546.35 11.4998 3582.5 47.6459 3582.5 92.2344L3582.5 1467.77C3582.5 1512.35 3546.35 1548.5 3501.77 1548.5L2680.23 1548.5C2635.65 1548.5 2599.5 1512.35 2599.5 1467.77Z" stroke="#E5E5E5" stroke-width="3.4375" stroke-linejoin="round" stroke-miterlimit="10" fill="#ED5326" fill-rule="evenodd"/><g clip-path="url(#clip10)"><g clip-path="url(#clip11)" filter="url(#fx2)" transform="translate(1531 -7)"><g clip-path="url(#clip12)"><path d="M21.2227 105.818C21.2227 59.0974 59.0974 21.2227 105.818 21.2227L966.646 21.2227C1013.37 21.2227 1051.24 59.0974 1051.24 105.818L1051.24 1473.63C1051.24 1520.35 1013.37 1558.22 966.646 1558.22L105.818 1558.22C59.0974 1558.22 21.2227 1520.35 21.2227 1473.63Z" stroke="#E5E5E5" stroke-width="3" stroke-linejoin="round" stroke-miterlimit="10" fill="#E7B921" fill-rule="evenodd"/></g></g></g><path d="M1542.5 89.0955C1542.5 42.3747 1580.37 4.49997 1627.1 4.49997L2487.92 4.49997C2534.64 4.49997 2572.52 42.3747 2572.52 89.0955L2572.52 1456.9C2572.52 1503.63 2534.64 1541.5 2487.92 1541.5L1627.1 1541.5C1580.37 1541.5 1542.5 1503.63 1542.5 1456.9Z" stroke="#E5E5E5" stroke-width="3.4375" stroke-linejoin="round" stroke-miterlimit="10" fill="#E7B921" fill-rule="evenodd"/><text fill="#FFFFFF" fill-opacity="0.988235" font-family="Segoe UI,Segoe UI_MSFontService,sans-serif" font-weight="400" font-size="96" transform="matrix(1 0 0 1 1639.75 575)">Element type (26)</text><path d="M2108.07 290.874C2108.07 296.835 2118 306.768 2118 312.729 2118 318.689 2106.09 326.636 2106.09 332.596 2104.1 338.556 2112.04 348.49 2112.04 354.45 2112.04 362.397 2098.14 370.344 2096.16 376.305 2094.17 380.278 2096.16 390.212 2094.17 394.186 2092.19 402.133 2078.29 414.053 2070.34 416.04 2046.51 422 1969.07 416.04 1969.07 416.04 1969.07 416.04 1969.07 416.04 1905.53 404.119 1905.53 404.119 1905.53 404.119 1905.53 284.914 1905.53 284.914 1905.53 284.914 1907.51 284.914 1907.51 284.914 1907.51 284.914 1907.51 284.914 1907.51 284.914 1907.51 284.914 1913.47 284.914 1921.41 282.927 1937.3 271.007 1959.14 217.364 1961.13 209.417 1969.07 205.444 1975.03 199.484 1988.93 189.55 1996.87 175.642 2000.84 127.96 2000.84 122 2020.7 123.987 2032.61 137.894 2042.54 149.815 2042.54 173.656 2036.59 191.536 2030.63 203.457 2012.76 231.272 2018.71 241.205 2018.71 241.205 2086.23 239.219 2098.14 245.179 2106.09 247.166 2118 265.046 2118 274.98 2118 278.954 2110.06 286.901 2108.07 290.874ZM1899.57 394.186C1899.57 394.186 1899.57 394.186 1899.57 394.186 1899.57 394.186 1899.57 394.186 1899.57 284.914 1899.57 278.954 1893.61 272.993 1885.67 272.993 1885.67 272.993 1885.67 272.993 1853.9 272.993 1845.96 272.993 1840 278.954 1840 284.914 1840 284.914 1840 284.914 1840 394.186 1840 402.133 1845.96 408.093 1853.9 408.093 1853.9 408.093 1853.9 408.093 1885.67 408.093 1893.61 408.093 1899.57 402.133 1899.57 394.186Z" fill="#FFFFFF" fill-rule="evenodd"/><text fill="#000000" fill-opacity="0.988235" font-family="Arial,Arial_MSFontService,sans-serif" font-weight="400" font-size="55" transform="matrix(1 0 0 1 1572.31 686)">•</text><text fill="#000000" fill-opacity="0.988235" font-family="Segoe UI,Segoe UI_MSFontService,sans-serif" font-weight="400" font-size="55" transform="matrix(1 0 0 1 1607.14 686)">Linear element</text><text font-family="Segoe UI,Segoe UI_MSFontService,sans-serif" font-weight="400" font-size="55" transform="matrix(1 0 0 1 1964.07 686)">:  </text><text fill="#FFFFFF" fill-opacity="0.988235" font-family="Segoe UI,Segoe UI_MSFontService,sans-serif" font-weight="400" font-size="41" transform="matrix(1 0 0 1 2005.89 686)">TRIANGLE 3, </text><text fill="#FFFFFF" fill-opacity="0.988235" font-family="Segoe UI,Segoe UI_MSFontService,sans-serif" font-weight="400" font-size="41" transform="matrix(1 0 0 1 1607.14 738)">QUADRILATERAL 4</text><text fill="#FFFFFF" fill-opacity="0.988235" font-family="Segoe UI,Segoe UI_MSFontService,sans-serif" font-weight="400" font-size="41" transform="matrix(1 0 0 1 1949.18 738)">, TETRAHEDRON 4, </text><text fill="#FFFFFF" fill-opacity="0.988235" font-family="Segoe UI,Segoe UI_MSFontService,sans-serif" font-weight="400" font-size="41" transform="matrix(1 0 0 1 1607.14 788)">HEXAHEDRON 8, PRISM 6, PYRAMID 6</text><text fill="#000000" fill-opacity="0.988235" font-family="Arial,Arial_MSFontService,sans-serif" font-weight="400" font-size="55" transform="matrix(1 0 0 1 1572.31 873)">•</text><text fill="#000000" fill-opacity="0.988235" font-family="Segoe UI,Segoe UI_MSFontService,sans-serif" font-weight="400" font-size="55" transform="matrix(1 0 0 1 1607.14 873)">Quadratic element: </text><text fill="#FFFFFF" fill-opacity="0.988235" font-family="Segoe UI,Segoe UI_MSFontService,sans-serif" font-weight="400" font-size="41" transform="matrix(1 0 0 1 2082.67 873)">TRIANGLE 6</text><text fill="#FFFFFF" fill-opacity="0.988235" font-family="Segoe UI,Segoe UI_MSFontService,sans-serif" font-weight="400" font-size="41" transform="matrix(1 0 0 1 2299.23 873)">, </text><text fill="#FFFFFF" fill-opacity="0.988235" font-family="Segoe UI,Segoe UI_MSFontService,sans-serif" font-weight="400" font-size="41" transform="matrix(1 0 0 1 1607.14 926)">QUADRILATERAL 9</text><text fill="#FFFFFF" fill-opacity="0.988235" font-family="Segoe UI,Segoe UI_MSFontService,sans-serif" font-weight="400" font-size="41" transform="matrix(1 0 0 1 1949.18 926)">, </text><text fill="#FFFFFF" fill-opacity="0.988235" font-family="Segoe UI,Segoe UI_MSFontService,sans-serif" font-weight="400" font-size="41" transform="matrix(1 0 0 1 1969.8 926)">TETRAHEDRON 10</text><text fill="#FFFFFF" fill-opacity="0.988235" font-family="Segoe UI,Segoe UI_MSFontService,sans-serif" font-weight="400" font-size="41" transform="matrix(1 0 0 1 2306.1 926)">, </text><text fill="#FFFFFF" fill-opacity="0.988235" font-family="Segoe UI,Segoe UI_MSFontService,sans-serif" font-weight="400" font-size="41" transform="matrix(1 0 0 1 1607.14 976)">HEXAHEDRON 27</text><text fill="#FFFFFF" fill-opacity="0.988235" font-family="Segoe UI,Segoe UI_MSFontService,sans-serif" font-weight="400" font-size="41" transform="matrix(1 0 0 1 1928.55 976)">, </text><text fill="#FFFFFF" fill-opacity="0.988235" font-family="Segoe UI,Segoe UI_MSFontService,sans-serif" font-weight="400" font-size="41" transform="matrix(1 0 0 1 1949.18 976)">PRISM 18</text><text fill="#FFFFFF" fill-opacity="0.988235" font-family="Segoe UI,Segoe UI_MSFontService,sans-serif" font-weight="400" font-size="41" transform="matrix(1 0 0 1 2122.77 976)">, </text><text fill="#FFFFFF" fill-opacity="0.988235" font-family="Segoe UI,Segoe UI_MSFontService,sans-serif" font-weight="400" font-size="41" transform="matrix(1 0 0 1 2143.39 976)">PYRAMID 14</text><text fill="#000000" fill-opacity="0.988235" font-family="Arial,Arial_MSFontService,sans-serif" font-weight="400" font-size="55" transform="matrix(1 0 0 1 1572.31 1061)">•</text><text fill="#000000" fill-opacity="0.988235" font-family="Segoe UI,Segoe UI_MSFontService,sans-serif" font-weight="400" font-size="55" transform="matrix(1 0 0 1 1607.14 1061)">Reduced integration: </text><text fill="#FFFFFF" fill-opacity="0.988235" font-family="Segoe UI,Segoe UI_MSFontService,sans-serif" font-weight="400" font-size="41" transform="matrix(1 0 0 1 2126.78 1061)">QUADRILATERAL 8</text><text fill="#FFFFFF" fill-opacity="0.988235" font-family="Segoe UI,Segoe UI_MSFontService,sans-serif" font-weight="400" font-size="41" transform="matrix(1 0 0 1 2468.81 1061)">, </text><text fill="#FFFFFF" fill-opacity="0.988235" font-family="Segoe UI,Segoe UI_MSFontService,sans-serif" font-weight="400" font-size="41" transform="matrix(1 0 0 1 1607.14 1114)">HEXAHEDRON 20</text><text fill="#FFFFFF" fill-opacity="0.988235" font-family="Segoe UI,Segoe UI_MSFontService,sans-serif" font-weight="400" font-size="41" transform="matrix(1 0 0 1 1928.55 1114)">, </text><text fill="#FFFFFF" fill-opacity="0.988235" font-family="Segoe UI,Segoe UI_MSFontService,sans-serif" font-weight="400" font-size="41" transform="matrix(1 0 0 1 1949.18 1114)">PRISM 15</text><text fill="#FFFFFF" fill-opacity="0.988235" font-family="Segoe UI,Segoe UI_MSFontService,sans-serif" font-weight="400" font-size="41" transform="matrix(1 0 0 1 2122.77 1114)">,</text><text fill="#FFFFFF" fill-opacity="0.988235" font-family="Segoe UI,Segoe UI_MSFontService,sans-serif" font-weight="400" font-size="41" transform="matrix(1 0 0 1 2143.39 1114)">PYRAMID 13</text><text fill="#FFFFFF" fill-opacity="0.988235" font-family="Segoe UI,Segoe UI_MSFontService,sans-serif" font-weight="400" font-size="41" transform="matrix(1 0 0 1 2373.13 1114)">, </text><text fill="#000000" fill-opacity="0.988235" font-family="Arial,Arial_MSFontService,sans-serif" font-weight="400" font-size="55" transform="matrix(1 0 0 1 1572.31 1200)">•</text><text fill="#000000" fill-opacity="0.988235" font-family="Segoe UI,Segoe UI_MSFontService,sans-serif" font-weight="400" font-size="55" transform="matrix(1 0 0 1 1607.14 1200)">Interface element: </text><text fill="#FFFFFF" fill-opacity="0.988235" font-family="Segoe UI,Segoe UI_MSFontService,sans-serif" font-weight="400" font-size="41" transform="matrix(1 0 0 1 2056.88 1200)">COH</text><text fill="#FFFFFF" fill-opacity="0.988235" font-family="Segoe UI,Segoe UI_MSFontService,sans-serif" font-weight="400" font-size="41" transform="matrix(1 0 0 1 2154.28 1200)">3, </text><text fill="#FFFFFF" fill-opacity="0.988235" font-family="Segoe UI,Segoe UI_MSFontService,sans-serif" font-weight="400" font-size="41" transform="matrix(1 0 0 1 2197.25 1200)">COH</text><text fill="#FFFFFF" fill-opacity="0.988235" font-family="Segoe UI,Segoe UI_MSFontService,sans-serif" font-weight="400" font-size="41" transform="matrix(1 0 0 1 2294.64 1200)">7, </text><text fill="#FFFFFF" fill-opacity="0.988235" font-family="Segoe UI,Segoe UI_MSFontService,sans-serif" font-weight="400" font-size="41" transform="matrix(1 0 0 1 2337.61 1200)">COH</text><text fill="#FFFFFF" fill-opacity="0.988235" font-family="Segoe UI,Segoe UI_MSFontService,sans-serif" font-weight="400" font-size="41" transform="matrix(1 0 0 1 2435.01 1200)">4, </text><text fill="#FFFFFF" fill-opacity="0.988235" font-family="Segoe UI,Segoe UI_MSFontService,sans-serif" font-weight="400" font-size="41" transform="matrix(1 0 0 1 1607.14 1252)">COH</text><text fill="#FFFFFF" fill-opacity="0.988235" font-family="Segoe UI,Segoe UI_MSFontService,sans-serif" font-weight="400" font-size="41" transform="matrix(1 0 0 1 1704.54 1252)">8, </text><text fill="#FFFFFF" fill-opacity="0.988235" font-family="Segoe UI,Segoe UI_MSFontService,sans-serif" font-weight="400" font-size="41" transform="matrix(1 0 0 1 1747.51 1252)">COH</text><text fill="#FFFFFF" fill-opacity="0.988235" font-family="Segoe UI,Segoe UI_MSFontService,sans-serif" font-weight="400" font-size="41" transform="matrix(1 0 0 1 1844.91 1252)">9</text><text fill="#000000" fill-opacity="0.988235" font-family="Arial,Arial_MSFontService,sans-serif" font-weight="400" font-size="55" transform="matrix(1 0 0 1 1572.31 1338)">•</text><text fill="#000000" fill-opacity="0.988235" font-family="Segoe UI,Segoe UI_MSFontService,sans-serif" font-weight="400" font-size="55" transform="matrix(1 0 0 1 1607.14 1338)">Structure element: </text><text fill="#FFFFFF" fill-opacity="0.988235" font-family="Segoe UI,Segoe UI_MSFontService,sans-serif" font-weight="400" font-size="41" transform="matrix(1 0 0 1 2066.05 1338)">POINT 0, LINE 2, LINE 3</text><text fill="#000000" fill-opacity="0.988235" font-family="Arial,Arial_MSFontService,sans-serif" font-weight="400" font-size="55" transform="matrix(1 0 0 1 1572.31 1427)">•</text><text fill="#000000" fill-opacity="0.988235" font-family="Segoe UI,Segoe UI_MSFontService,sans-serif" font-weight="400" font-size="55" transform="matrix(1 0 0 1 1607.14 1427)">Others: </text><text fill="#FFFFFF" fill-opacity="0.988235" font-family="Segoe UI,Segoe UI_MSFontService,sans-serif" font-weight="400" font-size="41" transform="matrix(1 0 0 1 1796.21 1427)">POLYGON, POLYHEDRON </text><text fill="#FFFFFF" fill-opacity="0.988235" font-family="Segoe UI,Segoe UI_MSFontService,sans-serif" font-weight="400" font-size="96" transform="matrix(1 0 0 1 3995.99 575)">Contact</text><path d="M4206.12 134.35C4190.24 116.533 4164.45 88.8174 4132.7 76.9393 4110.87 71.0002 4061.26 80.8986 4061.26 80.8986 4055.31 124.452 4055.31 124.452 4055.31 124.452 4047.37 128.411 4047.37 128.411 4047.37 128.411 4047.37 136.33 4047.37 136.33 4047.37 136.33 4047.37 136.33 4047.37 144.249 4057.29 150.188 4067.21 154.147 4112.85 175.924 4142.62 158.107 4202.15 189.782 4176.35 251.152 4202.15 294.706 4212.07 308.563 4227.94 322.421 4253.74 326.381 4253.74 326.381 4196.19 330.34 4190.24 286.787 4168.41 276.888 4130.71 266.99 4096.98 298.665 4069.2 268.97 3995.78 268.97 3968 300.645 3979.91 350.137 4003.72 393.69 4019.59 415.467 4071.18 379.833 4089.04 340.239 4089.04 340.239 4087.06 348.157 4085.07 356.076 4081.1 363.995 4172.38 401.609 4218.02 348.157 4218.02 348.157 4180.32 409.528 4093.01 381.812 4077.14 373.893 4063.25 399.629 4043.4 417.447 4027.53 427.345 4031.5 429.325 4031.5 431.305 4031.5 431.305 4142.62 461 4273.58 421.406 4325.17 385.772 4347 369.934 4341.05 344.198 4335.09 326.381 4309.3 251.152 4233.9 168.005 4206.12 134.35Z" fill="#FFFFFF" fill-rule="evenodd"/><text fill="#000000" fill-opacity="0.988235" font-family="Arial,Arial_MSFontService,sans-serif" font-weight="400" font-size="44" transform="matrix(1 0 0 1 3724.94 687)">•</text><text fill="#000000" fill-opacity="0.988235" font-family="Segoe UI,Segoe UI_MSFontService,sans-serif" font-weight="400" font-size="55" transform="matrix(1 0 0 1 3759.78 687)">Rough search: </text><text fill="#FFFFFF" font-family="Segoe UI,Segoe UI_MSFontService,sans-serif" font-weight="400" font-size="41" transform="matrix(1 0 0 1 4116.13 687)">NBS, Cell</text><text fill="#FFFFFF" font-family="Segoe UI,Segoe UI_MSFontService,sans-serif" font-weight="400" font-size="41" transform="matrix(1 0 0 1 4279.99 687)">-</text><text fill="#FFFFFF" font-family="Segoe UI,Segoe UI_MSFontService,sans-serif" font-weight="400" font-size="41" transform="matrix(1 0 0 1 4296.6 687)">based, time</text><text fill="#FFFFFF" font-family="Segoe UI,Segoe UI_MSFontService,sans-serif" font-weight="400" font-size="41" transform="matrix(1 0 0 1 4506.86 687)">-</text><text fill="#FFFFFF" font-family="Segoe UI,Segoe UI_MSFontService,sans-serif" font-weight="400" font-size="41" transform="matrix(1 0 0 1 3759.78 739)">dependent cell method</text><text fill="#000000" fill-opacity="0.988235" font-family="Arial,Arial_MSFontService,sans-serif" font-weight="400" font-size="44" transform="matrix(1 0 0 1 3724.94 838)">•</text><text fill="#000000" fill-opacity="0.988235" font-family="Segoe UI,Segoe UI_MSFontService,sans-serif" font-weight="400" font-size="55" transform="matrix(1 0 0 1 3759.78 838)">Contact </text><text fill="#000000" fill-opacity="0.988235" font-family="Segoe UI,Segoe UI_MSFontService,sans-serif" font-weight="400" font-size="55" transform="matrix(1 0 0 1 3962.59 838)">type:</text><text fill="#FFFFFF" font-family="Segoe UI,Segoe UI_MSFontService,sans-serif" font-weight="400" font-size="41" transform="matrix(1 0 0 1 4095.51 838)">Triangle</text><text fill="#FFFFFF" font-family="Segoe UI,Segoe UI_MSFontService,sans-serif" font-weight="400" font-size="41" transform="matrix(1 0 0 1 4241.6 838)">-</text><text fill="#FFFFFF" font-family="Segoe UI,Segoe UI_MSFontService,sans-serif" font-weight="400" font-size="41" transform="matrix(1 0 0 1 4258.22 838)">Triangle,</text><text fill="#FFFFFF" font-family="Segoe UI,Segoe UI_MSFontService,sans-serif" font-weight="400" font-size="41" transform="matrix(1 0 0 1 4424.93 838)">Quad</text><text fill="#FFFFFF" font-family="Segoe UI,Segoe UI_MSFontService,sans-serif" font-weight="400" font-size="41" transform="matrix(1 0 0 1 4524.62 838)">-</text><text fill="#FFFFFF" font-family="Segoe UI,Segoe UI_MSFontService,sans-serif" font-weight="400" font-size="41" transform="matrix(1 0 0 1 3759.78 891)">Triangle, Quad</text><text fill="#FFFFFF" font-family="Segoe UI,Segoe UI_MSFontService,sans-serif" font-weight="400" font-size="41" transform="matrix(1 0 0 1 4026.18 891)">-</text><text fill="#FFFFFF" font-family="Segoe UI,Segoe UI_MSFontService,sans-serif" font-weight="400" font-size="41" transform="matrix(1 0 0 1 4042.8 891)">Quad, quadratic contact pair, </text><text fill="#FFFFFF" font-family="Segoe UI,Segoe UI_MSFontService,sans-serif" font-weight="400" font-size="41" transform="matrix(1 0 0 1 3759.78 940)">Line</text><text fill="#FFFFFF" font-family="Segoe UI,Segoe UI_MSFontService,sans-serif" font-weight="400" font-size="41" transform="matrix(1 0 0 1 3834.26 940)">-</text><text fill="#FFFFFF" font-family="Segoe UI,Segoe UI_MSFontService,sans-serif" font-weight="400" font-size="41" transform="matrix(1 0 0 1 3850.87 940)">Arbitary</text><text fill="#FFFFFF" font-family="Segoe UI,Segoe UI_MSFontService,sans-serif" font-weight="400" font-size="41" transform="matrix(1 0 0 1 3994.67 940)">, </text><text fill="#FFFFFF" font-family="Segoe UI,Segoe UI_MSFontService,sans-serif" font-weight="400" font-size="41" transform="matrix(1 0 0 1 4015.3 940)">Arbitary</text><text fill="#FFFFFF" font-family="Segoe UI,Segoe UI_MSFontService,sans-serif" font-weight="400" font-size="41" transform="matrix(1 0 0 1 4159.1 940)">-</text><text fill="#FFFFFF" font-family="Segoe UI,Segoe UI_MSFontService,sans-serif" font-weight="400" font-size="41" transform="matrix(1 0 0 1 4175.72 940)">Arbitary</text><text fill="#000000" fill-opacity="0.988235" font-family="Arial,Arial_MSFontService,sans-serif" font-weight="400" font-size="44" transform="matrix(1 0 0 1 3724.94 1039)">•</text><text fill="#000000" fill-opacity="0.988235" font-family="Segoe UI,Segoe UI_MSFontService,sans-serif" font-weight="400" font-size="55" transform="matrix(1 0 0 1 3759.78 1039)">Potential model: </text><text fill="#FFFFFF" font-family="Segoe UI,Segoe UI_MSFontService,sans-serif" font-weight="400" font-size="41" transform="matrix(1 0 0 1 4170.56 1039)">Munjiza</text><text fill="#FFFFFF" font-family="Segoe UI,Segoe UI_MSFontService,sans-serif" font-weight="400" font-size="41" transform="matrix(1 0 0 1 4325.82 1039)">potential, </text><text fill="#FFFFFF" font-family="Segoe UI,Segoe UI_MSFontService,sans-serif" font-weight="400" font-size="41" transform="matrix(1 0 0 1 3759.78 1092)">Yuntian</text><text fill="#FFFFFF" font-family="Segoe UI,Segoe UI_MSFontService,sans-serif" font-weight="400" font-size="41" transform="matrix(1 0 0 1 3909.31 1092)">potential, penalty method</text><text fill="#FFFFFF" fill-opacity="0.988235" font-family="Segoe UI,Segoe UI_MSFontService,sans-serif" font-weight="400" font-size="96" transform="matrix(1 0 0 1 2684.54 575)">Material library (24)</text><path d="M2733 251.155C2733 251.155 2788.15 182.953 2863.22 181.297 2863.22 181.297 2886.48 176 2905.75 192.885 2905.75 192.885 2922.69 195.534 2929 199.838 2929 199.838 2835.98 185.601 2754.26 274 2754.26 274 2738.32 267.047 2733 251.155Z" fill="#FFFFFF" fill-rule="evenodd"/><path d="M2728 250C2840.97 132.169 2840.97 132.169 2840.97 132.169 2840.97 132.169 2863.17 109 2883.05 113.303 2883.05 113.303 2889.34 116.944 2891 124.556 2830.37 182.479 2830.37 182.479 2830.37 182.479 2830.37 182.479 2789.62 189.099 2728 250Z" fill="#FFFFFF" fill-rule="evenodd"/><path d="M2847 122.993C2847 122.993 2883.83 77 2901.57 116.706 2923 167 2923 167 2923 167 2896.22 122 2896.22 122 2896.22 122 2896.22 122 2887.18 90.2353 2847 122.993Z" fill="#FFFFFF" fill-rule="evenodd"/><path d="M2884 103C2920.49 109.975 2920.49 109.975 2920.49 109.975 2920.49 109.975 2932.76 114.293 2939.73 127.578 2939.73 127.578 2979.54 215.26 2986.84 233.859 2986.84 233.859 3003.42 267.737 3022 287 3022 287 2998.78 283.679 2981.86 261.426 2981.86 261.426 2956.32 203.968 2931.77 195.996 2931.77 195.996 2915.18 137.542 2884 103Z" fill="#FFFFFF" fill-rule="evenodd"/><path d="M2953 160C2953 160 3000.76 262.58 3036.91 284.823 3036.91 284.823 3082.02 315.697 3152 296.442 3152 296.442 3111.21 323 3033.6 293.786 3033.6 293.786 2998.11 284.823 2953 160Z" fill="#FFFFFF" fill-rule="evenodd"/><path d="M3031 274.823C3031 274.823 3103.86 286.108 3163.08 256.901 3163.08 256.901 3197.01 234 3204 251.591 3191.69 280.798 3191.69 280.798 3191.69 280.798 3191.69 280.798 3138.46 311 3069.26 293.41 3069.26 293.41 3048.63 286.108 3031 274.823Z" fill="#FFFFFF" fill-rule="evenodd"/><path d="M2753 274C2753 274 2859.88 187.317 2917.12 206.58 2917.12 206.58 2949.88 208.573 2979 264.369 2968.41 244.109 2959.81 218.869 2940.29 205.252 2908.19 183 2856.24 203.591 2824.8 217.872 2811.57 223.85 2798.99 231.157 2787.74 240.124 2774.51 249.755 2765.24 264.036 2753 274Z" fill="#FFFFFF" fill-rule="evenodd"/><path d="M2903 207C2912.61 219.929 2921.22 233.19 2929.84 246.783 2957.67 291.538 2961.98 341.598 3020.3 375.082 3033.89 383.038 3045.49 389.337 3061.39 390 3061.39 390 3071 389.337 3071 389.337 3064.7 389.669 3050.46 372.43 3046.81 368.783 3022.62 343.256 3005.06 316.402 2989.82 284.576 2979.21 262.033 2964.3 240.152 2944.75 224.239 2938.46 219.266 2932.16 214.956 2924.87 212.304 2921.22 210.647 2904.66 209.321 2903 207Z" fill="#FFFFFF" fill-rule="evenodd"/><path d="M2982.33 352.59C2982.33 352.59 2982 352.59 2982 352.59 3002.22 381.124 3026.75 408 3065.2 402.359 3083.76 399.705 3100.99 389.751 3115.91 379.134 3132.81 366.857 3143.75 349.604 3159 336 3135.47 357.235 3109.28 383.115 3077.13 390.415 3041 399.042 3009.51 372.829 2982.33 352.59Z" fill="#FFFFFF" fill-rule="evenodd"/><path d="M3073 403.445C3073 403.445 3116.33 422 3145.67 393.835 3145.67 393.835 3207.67 344.464 3230.67 285.153 3230.67 285.153 3237 276.206 3233.33 274.55 3211 255 3211 255 3211 255 3211 255 3147.67 386.877 3073 403.445Z" fill="#FFFFFF" fill-rule="evenodd"/><path d="M3144 337C3144 337 3219 251.548 3184.49 250.554 3184.49 250.554 3204.07 233 3206.72 254.197 3206.72 254.197 3170.55 324.745 3144 337Z" fill="#FFFFFF" fill-rule="evenodd"/><path d="M2837.45 185C2837.45 185 2884.61 164 2940 206 2890.21 201.258 2890.21 201.258 2890.21 201.258 2818 205.661 2818 205.661 2818 205.661L2837.45 185Z" fill="#FFFFFF" fill-rule="evenodd"/><path d="M2987 265C2987 265 3042.11 329 3152 296.333 3114.82 304.333 3114.82 304.333 3114.82 304.333 3075.97 303.333 3075.97 303.333 3075.97 303.333 3009.58 276.667 3009.58 276.667 3009.58 276.667L2987 265Z" fill="#FFFFFF" fill-rule="evenodd"/><path d="M3149 264C3149 264 3190 232 3205 248 3185.33 268.333 3185.33 268.333 3185.33 268.333 3153.33 272 3153.33 272 3153.33 272L3149 264Z" fill="#FFFFFF" fill-rule="evenodd"/><text fill="#000000" fill-opacity="0.988235" font-family="Arial,Arial_MSFontService,sans-serif" font-weight="400" font-size="44" transform="matrix(1 0 0 1 2617.81 686)">•</text><text fill="#000000" fill-opacity="0.988235" font-family="Segoe UI,Segoe UI_MSFontService,sans-serif" font-weight="400" font-size="55" transform="matrix(1 0 0 1 2652.64 686)">Matrix material: </text><text fill="#FFFFFF" fill-opacity="0.988235" font-family="Segoe UI,Segoe UI_MSFontService,sans-serif" font-weight="400" font-size="41" transform="matrix(1 0 0 1 3044.51 686)">elastic, </text><text fill="#FFFFFF" fill-opacity="0.988235" font-family="Segoe UI,Segoe UI_MSFontService,sans-serif" font-weight="400" font-size="41" transform="matrix(1 0 0 1 3178 686)">hyperelastic</text><text fill="#FFFFFF" fill-opacity="0.988235" font-family="Segoe UI,Segoe UI_MSFontService,sans-serif" font-weight="400" font-size="41" transform="matrix(1 0 0 1 3394.57 686)">, </text><text fill="#FFFFFF" fill-opacity="0.988235" font-family="Segoe UI,Segoe UI_MSFontService,sans-serif" font-weight="400" font-size="41" transform="matrix(1 0 0 1 2652.64 738)">transverse, Mohr</text><text fill="#FFFFFF" fill-opacity="0.988235" font-family="Segoe UI,Segoe UI_MSFontService,sans-serif" font-weight="400" font-size="41" transform="matrix(1 0 0 1 2958 738)">-</text><text fill="#FFFFFF" fill-opacity="0.988235" font-family="Segoe UI,Segoe UI_MSFontService,sans-serif" font-weight="400" font-size="41" transform="matrix(1 0 0 1 2974.62 738)">Coulomb plastic, </text><text fill="#FFFFFF" fill-opacity="0.988235" font-family="Segoe UI,Segoe UI_MSFontService,sans-serif" font-weight="400" font-size="41" transform="matrix(1 0 0 1 3288.58 738)">Drucker</text><text fill="#FFFFFF" fill-opacity="0.988235" font-family="Segoe UI,Segoe UI_MSFontService,sans-serif" font-weight="400" font-size="41" transform="matrix(1 0 0 1 3430.66 738)">–</text><text fill="#FFFFFF" fill-opacity="0.988235" font-family="Segoe UI,Segoe UI_MSFontService,sans-serif" font-weight="400" font-size="41" transform="matrix(1 0 0 1 2652.64 788)">Prager plastic, Viscous Burgers, Viscous Power </text><text fill="#FFFFFF" fill-opacity="0.988235" font-family="Segoe UI,Segoe UI_MSFontService,sans-serif" font-weight="400" font-size="41" transform="matrix(1 0 0 1 2652.64 837)">law, Mazars damage, CDP, </text><text fill="#FFFFFF" fill-opacity="0.988235" font-family="Segoe UI,Segoe UI_MSFontService,sans-serif" font-weight="400" font-size="41" transform="matrix(1 0 0 1 3142.48 837)">JH2</text><text fill="#FFFFFF" fill-opacity="0.988235" font-family="Segoe UI,Segoe UI_MSFontService,sans-serif" font-weight="400" font-size="41" transform="matrix(1 0 0 1 3208.94 837)">, </text><text fill="#FFFFFF" fill-opacity="0.988235" font-family="Segoe UI,Segoe UI_MSFontService,sans-serif" font-weight="400" font-size="41" transform="matrix(1 0 0 1 3229.57 837)">JWL</text><text fill="#FFFFFF" fill-opacity="0.988235" font-family="Segoe UI,Segoe UI_MSFontService,sans-serif" font-weight="400" font-size="41" transform="matrix(1 0 0 1 3302.33 837)">, </text><text fill="#FFFFFF" fill-opacity="0.988235" font-family="Segoe UI,Segoe UI_MSFontService,sans-serif" font-weight="400" font-size="41" transform="matrix(1 0 0 1 3322.95 837)">phasefield</text><text fill="#FFFFFF" fill-opacity="0.988235" font-family="Segoe UI,Segoe UI_MSFontService,sans-serif" font-weight="400" font-size="41" transform="matrix(1 0 0 1 3509.72 837)">, </text><text fill="#FFFFFF" fill-opacity="0.988235" font-family="Segoe UI,Segoe UI_MSFontService,sans-serif" font-weight="400" font-size="41" transform="matrix(1 0 0 1 2652.64 887)">nonlocal damage</text><text fill="#000000" fill-opacity="0.988235" font-family="Arial,Arial_MSFontService,sans-serif" font-weight="400" font-size="44" transform="matrix(1 0 0 1 2617.81 986)">•</text><text fill="#000000" fill-opacity="0.988235" font-family="Segoe UI,Segoe UI_MSFontService,sans-serif" font-weight="400" font-size="55" transform="matrix(1 0 0 1 2652.64 986)">Interface material:  </text><text fill="#FFFFFF" fill-opacity="0.988235" font-family="Segoe UI,Segoe UI_MSFontService,sans-serif" font-weight="400" font-size="41" transform="matrix(1 0 0 1 3117.27 986)">Evans</text><text fill="#FFFFFF" fill-opacity="0.988235" font-family="Segoe UI,Segoe UI_MSFontService,sans-serif" font-weight="400" font-size="41" transform="matrix(1 0 0 1 3219.83 986)">-</text><text fill="#FFFFFF" fill-opacity="0.988235" font-family="Segoe UI,Segoe UI_MSFontService,sans-serif" font-weight="400" font-size="41" transform="matrix(1 0 0 1 3236.44 986)">Marathe, </text><text fill="#FFFFFF" fill-opacity="0.988235" font-family="Segoe UI,Segoe UI_MSFontService,sans-serif" font-weight="400" font-size="41" transform="matrix(1 0 0 1 2652.64 1038)">anisotropic, heterogenous, Ortiz</text><text fill="#FFFFFF" fill-opacity="0.988235" font-family="Segoe UI,Segoe UI_MSFontService,sans-serif" font-weight="400" font-size="41" transform="matrix(1 0 0 1 3236.44 1038)">-</text><text fill="#FFFFFF" fill-opacity="0.988235" font-family="Segoe UI,Segoe UI_MSFontService,sans-serif" font-weight="400" font-size="41" transform="matrix(1 0 0 1 3253.06 1038)">Pandolfi</text><text fill="#FFFFFF" fill-opacity="0.988235" font-family="Segoe UI,Segoe UI_MSFontService,sans-serif" font-weight="400" font-size="41" transform="matrix(1 0 0 1 3401.44 1038)">, rate</text><text fill="#FFFFFF" fill-opacity="0.988235" font-family="Segoe UI,Segoe UI_MSFontService,sans-serif" font-weight="400" font-size="41" transform="matrix(1 0 0 1 3493.11 1038)">-</text><text fill="#FFFFFF" fill-opacity="0.988235" font-family="Segoe UI,Segoe UI_MSFontService,sans-serif" font-weight="400" font-size="41" transform="matrix(1 0 0 1 2652.64 1088)">dependet</text><text fill="#FFFFFF" fill-opacity="0.988235" font-family="Segoe UI,Segoe UI_MSFontService,sans-serif" font-weight="400" font-size="41" transform="matrix(1 0 0 1 2827.38 1088)">, linear, Fatigue</text><text fill="#000000" fill-opacity="0.988235" font-family="Arial,Arial_MSFontService,sans-serif" font-weight="400" font-size="44" transform="matrix(1 0 0 1 2617.81 1187)">•</text><text fill="#000000" fill-opacity="0.988235" font-family="Segoe UI,Segoe UI_MSFontService,sans-serif" font-weight="400" font-size="55" transform="matrix(1 0 0 1 2652.64 1187)">Contact material: </text><text fill="#FFFFFF" fill-opacity="0.988235" font-family="Segoe UI,Segoe UI_MSFontService,sans-serif" font-weight="400" font-size="41" transform="matrix(1 0 0 1 3078.89 1187)">Mohr</text><text fill="#FFFFFF" fill-opacity="0.988235" font-family="Segoe UI,Segoe UI_MSFontService,sans-serif" font-weight="400" font-size="41" transform="matrix(1 0 0 1 3178 1187)">-</text><text fill="#FFFFFF" fill-opacity="0.988235" font-family="Segoe UI,Segoe UI_MSFontService,sans-serif" font-weight="400" font-size="41" transform="matrix(1 0 0 1 3194.62 1187)">Coulomb, hertz, </text><text fill="#FFFFFF" fill-opacity="0.988235" font-family="Segoe UI,Segoe UI_MSFontService,sans-serif" font-weight="400" font-size="41" transform="matrix(1 0 0 1 2652.64 1239)">RSF, dilation shear, dynamic friction</text></g></svg>